<?xml version="1.0" ?><svg data-name="016_FOOD" id="_016_FOOD" viewBox="0 0 24 24" xmlns="http://www.w3.org/2000/svg"><defs><style>.cls-1{fill:#333;}</style></defs><path class="cls-1" d="M9.22,21.87a3.54,3.54,0,0,1-1.78-.48,3.61,3.61,0,0,1-1.8-3.11.17.17,0,0,1,0-.07,3.57,3.57,0,0,1-3.18-5.36A3.6,3.6,0,0,1,7.31,11.5l4.32-4.21a3.48,3.48,0,0,1-.44-1.71,3.58,3.58,0,1,1,7.16,0,.2.2,0,0,1,0,.07,3.58,3.58,0,0,1,3.18,1.79,3.58,3.58,0,0,1-3.11,5.36,3.39,3.39,0,0,1-1.05-.16A1,1,0,0,1,18,10.73,1.61,1.61,0,0,0,19.8,10a1.55,1.55,0,0,0,.2-.77,1.49,1.49,0,0,0-.2-.76,1.61,1.61,0,0,0-2.11-.64,1.25,1.25,0,0,1-.53.13A1.12,1.12,0,0,1,16,6.83a1.18,1.18,0,0,1,.13-.52,1.71,1.71,0,0,0,.18-.73,1.58,1.58,0,1,0-3.16,0,1.55,1.55,0,0,0,.46,1.11,1,1,0,0,1,.3.72,1.07,1.07,0,0,1-.31.71L8.1,13.53a1,1,0,0,1-1.41,0,1.55,1.55,0,0,0-1.11-.46,1.58,1.58,0,0,0-1.39.81,1.56,1.56,0,0,0,0,1.53A1.64,1.64,0,0,0,6.31,16a1.19,1.19,0,0,1,.52-.14A1.12,1.12,0,0,1,8,17a1.22,1.22,0,0,1-.13.53,1.71,1.71,0,0,0-.18.73,1.58,1.58,0,0,0,.82,1.38,1.55,1.55,0,0,0,1.53,0,1.59,1.59,0,0,0,.35-2.5,1,1,0,0,1-.3-.71,1.05,1.05,0,0,1,.31-.71l3.57-3.49a1,1,0,1,1,1.4,1.43l-3,2.89a3.48,3.48,0,0,1,.44,1.71A3.59,3.59,0,0,1,11,21.39,3.52,3.52,0,0,1,9.22,21.87Z"/></svg>